<?xml version="1.0" encoding="utf-8"?>
<!-- Generator: Adobe Illustrator 16.0.0, SVG Export Plug-In . SVG Version: 6.00 Build 0)  -->
<!DOCTYPE svg PUBLIC "-//W3C//DTD SVG 1.1//EN" "http://www.w3.org/Graphics/SVG/1.1/DTD/svg11.dtd">
<svg version="1.1" id="Layer_1" xmlns="http://www.w3.org/2000/svg" xmlns:xlink="http://www.w3.org/1999/xlink" x="0px" y="0px"
	 width="300px" height="28px" viewBox="0 0 300 28" enable-background="new 0 0 300 28" xml:space="preserve">
<path fill-rule="evenodd" clip-rule="evenodd" fill="#FDFDFD" d="M299.8,6c-0.63-0.02-0.71-0.56-0.91-0.97
	c-1.26-2.67-3.35-4.13-6.319-4.181c-3.021-0.06-5.07,1.49-6.34,4.12c-0.44,0.931-1.12,1.38-2.061,1.62
	c-5.04,1.29-10.11,2.44-15.2,3.5c-7.279,1.51-14.59,2.86-21.939,4.03c-8.17,1.31-16.38,2.33-24.61,3.22
	c-7.27,0.8-14.55,1.42-21.84,1.91c-4.62,0.31-9.25,0.58-13.88,0.82c-9.22,0.46-18.44,0.68-27.67,0.739
	c-2.59,0.021-5.2,0.33-7.79,0.15c-4.95-0.33-9.91-0.02-14.86-0.229c-4.79-0.211-9.59-0.221-14.37-0.48
	c-6.22-0.34-12.44-0.72-18.65-1.11c-7.82-0.489-15.62-1.189-23.4-2.05c-10.25-1.13-20.48-2.49-30.67-4.1
	C39.42,11.42,29.58,9.63,19.8,7.56c-0.51-0.109-1.01-0.26-1.52-0.34c-1.77-0.27-2.88-1.029-3.65-2.88C12.7-0.28,5.88-0.75,3.03,3.37
	C2.69,3.86,2.42,4.4,2.13,4.92C1.94,5.29,1.81,5.78,1.24,5.76c0.52-0.18,0.46-0.7,0.61-1.08C3.04,1.8,5.83,0.01,8.96,0.16
	c2.97,0.14,5.61,2.17,6.46,5.07c0.22,0.75,0.56,1.109,1.32,1.279c10.42,2.33,20.92,4.23,31.46,5.931
	c9.87,1.59,19.77,2.939,29.7,4.06c8.54,0.97,17.1,1.71,25.68,2.3c13.37,0.931,26.75,1.44,40.14,1.66
	c15.04,0.25,30.07-0.05,45.089-0.85c12.54-0.66,25.061-1.66,37.54-3.07c19.2-2.16,38.2-5.46,56.971-10.1
	c1.319-0.32,2.239-0.78,2.91-2.19c1.279-2.68,3.689-3.95,6.67-3.8c2.989,0.16,5.069,1.74,6.319,4.45
	C299.39,5.27,299.27,5.82,299.8,6z"/>
<path fill-rule="evenodd" clip-rule="evenodd" fill="#4B9D45" d="M299.8,6.72c-0.2,0.561-0.2,1.12,0,1.681v0.72
	c-0.569,2.84-2.229,4.75-4.99,5.58c-2.29,0.68-4.55,0.479-6.54-0.96c-1.01-0.73-1.97-0.78-3.14-0.48
	c-12.63,3.29-25.43,5.76-38.32,7.8c-9.47,1.511-19,2.671-28.56,3.591c-6.12,0.59-12.25,1.119-18.39,1.56
	c-3.301,0.24-6.61,0.4-9.931,0.57c-6.1,0.31-12.21,0.51-18.31,0.77c-5.57,0.23-11.12,0.08-16.67,0.15c-4.76,0.06-9.52,0.06-14.28,0
	c-5.72-0.07-11.43-0.3-17.14-0.51c-4.58-0.171-9.17-0.431-13.76-0.7c-5.9-0.36-11.79-0.86-17.68-1.34
	C78.77,24.05,65.53,22.3,52.33,20.31c-12.22-1.85-24.38-4.079-36.45-6.76c-1.43-0.319-2.64-0.29-4,0.431
	C8,16.03,3.41,14.24,1.6,10.14C1.52,9.95,1.51,9.75,1.5,9.54c0-0.01,0-0.01,0-0.01C1.49,9.4,1.48,9.26,1.45,9.13
	C1.43,8.96,1.37,8.79,1.24,8.64V8.4C1.44,7.6,1.44,6.8,1.24,6V5.76c0.52-0.18,0.46-0.7,0.61-1.08C3.04,1.8,5.83,0.01,8.96,0.16
	c2.97,0.14,5.61,2.17,6.46,5.07c0.22,0.75,0.56,1.109,1.32,1.279c10.42,2.33,20.92,4.23,31.46,5.931
	c9.87,1.59,19.77,2.939,29.7,4.06c8.54,0.97,17.1,1.71,25.68,2.3c13.37,0.931,26.75,1.44,40.14,1.66
	c15.04,0.25,30.07-0.05,45.089-0.85c12.54-0.66,25.061-1.66,37.54-3.07c19.2-2.16,38.2-5.46,56.971-10.1
	c1.319-0.32,2.239-0.78,2.91-2.19c1.279-2.68,3.689-3.95,6.67-3.8c2.989,0.16,5.069,1.74,6.319,4.45c0.17,0.369,0.05,0.92,0.58,1.1
	V6.72z"/>
<path fill-rule="evenodd" clip-rule="evenodd" fill="#FEFEFE" d="M299.8,9.12c-0.569,2.84-2.229,4.75-4.99,5.58
	c-2.29,0.68-4.55,0.479-6.54-0.96c-1.01-0.73-1.97-0.78-3.14-0.48c-12.63,3.29-25.43,5.76-38.32,7.8
	c-9.47,1.511-19,2.671-28.56,3.591c-6.12,0.59-12.25,1.119-18.39,1.56c-3.301,0.24-6.61,0.4-9.931,0.57
	c-6.1,0.31-12.21,0.51-18.31,0.77c-5.57,0.23-11.12,0.08-16.67,0.15c-4.76,0.06-9.52,0.06-14.28,0c-5.72-0.07-11.43-0.3-17.14-0.51
	c-4.58-0.171-9.17-0.431-13.76-0.7c-5.9-0.36-11.79-0.86-17.68-1.34C78.77,24.05,65.53,22.3,52.33,20.31
	c-12.22-1.85-24.38-4.079-36.45-6.76c-1.43-0.319-2.64-0.29-4,0.431C8,16.03,3.41,14.24,1.6,10.14C1.52,9.95,1.51,9.75,1.5,9.54
	c0-0.01,0-0.01,0-0.01C1.44,9.37,1.4,9.2,1.24,9.12C1.33,9.11,1.4,9.11,1.45,9.13C1.7,9.21,1.52,9.61,1.66,9.77
	c0,0,0,0.011,0.01,0.011C1.7,9.81,1.73,9.82,1.76,9.83c2.44,4.729,6.65,5.939,11.16,3.16c0.42-0.26,0.78-0.29,1.24-0.181
	c16.81,3.79,33.79,6.66,50.86,8.971c11.92,1.609,23.88,2.85,35.88,3.72c22.54,1.64,45.12,2.24,67.71,1.78
	c11.87-0.24,23.729-0.87,35.569-1.771c11.12-0.85,22.221-1.939,33.271-3.439c12.64-1.7,25.18-3.95,37.62-6.75
	c3.779-0.86,7.54-1.801,11.3-2.73c0.51-0.13,0.85-0.109,1.29,0.25c4.32,3.51,9.7,2.05,11.76-3.17C299.5,9.46,299.49,9.17,299.8,9.12
	z"/>
<path fill-rule="evenodd" clip-rule="evenodd" fill="#9FC99A" d="M1.24,6c0.417,0.8,0.378,1.601,0,2.4C1.24,7.601,1.24,6.8,1.24,6z"
	/>
<path fill-rule="evenodd" clip-rule="evenodd" fill="#81BA7C" d="M299.801,8.4c-0.388-0.561-0.38-1.12,0-1.681
	C299.801,7.28,299.801,7.84,299.801,8.4z"/>
<path fill-rule="evenodd" clip-rule="evenodd" fill="#D9E6D7" d="M1.76,9.83C1.73,9.82,1.7,9.81,1.67,9.78
	c-0.01,0-0.01-0.011-0.01-0.011C1.57,9.72,1.53,9.63,1.5,9.54c0-0.01,0-0.01,0-0.01C1.44,9.37,1.4,9.2,1.24,9.12V8.64
	C1.8,8.86,1.69,9.38,1.76,9.83z"/>
</svg>
